<svg xmlns="http://www.w3.org/2000/svg" width="14" height="14" data-name="calendar (2)" viewBox="0 0 14 14">
    <path d="M12.4 13.999H1.6a1.606 1.606 0 0 1-1.6-1.6V2.771a1.605 1.605 0 0 1 1.6-1.6h10.8a1.605 1.605 0 0 1 1.6 1.6v9.628a1.606 1.606 0 0 1-1.6 1.6zM1.6 2.042a.73.73 0 0 0-.729.729v9.628a.73.73 0 0 0 .729.729h10.8a.73.73 0 0 0 .729-.729V2.771a.73.73 0 0 0-.729-.729zm0 0" data-name="Path 402"/>
    <path d="M13.563 5.542H.438a.438.438 0 0 1 0-.875h13.125a.438.438 0 0 1 0 .875zm0 0" data-name="Path 403"/>
    <path d="M3.354 3.5a.438.438 0 0 1-.437-.437V.438a.438.438 0 0 1 .875 0v2.625a.438.438 0 0 1-.438.437zm0 0" data-name="Path 404"/>
    <path d="M10.646 3.5a.438.438 0 0 1-.437-.437V.438a.438.438 0 0 1 .875 0v2.625a.438.438 0 0 1-.438.437zm0 0" data-name="Path 405"/>
</svg>
